# xmcd
#
# Track frame offsets:
#	150
#	13001
#	26313
#	41530
#	57622
#	74329
#	85502
#	98757
#	112937
#	125767
#	137383
#	153492
#	165230
#
# Disc length: 2377 seconds
#
# Revision: 1
# Processed by: cddbd v1.5.2PL0 Copyright (c) Steve Scherf et al.
# Submitted via: EasyCDDAExtractor 12.0.4.1
#
DISCID=9a09470d
DTITLE=Willie Nelson - You Don't Know Me (The Songs of Cindy Walker)
DYEAR=2006
DGENRE=Country
TTITLE0=Bubbles in My Beer
TTITLE1=Not That I Care
TTITLE2=Take Me in Your Arms and Hold Me
TTITLE3=Don't Be Ashamed of Your Age
TTITLE4=You Don't Know Me
TTITLE5=Sugar Moon
TTITLE6=I Don't Care
TTITLE7=Cherokee Maiden
TTITLE8=The Warm Red Wine
TTITLE9=Miss Molly
TTITLE10=Dusty Skies
TTITLE11=It's All Your Fault
TTITLE12=I Was Just Walkin' Out the Door
EXTD=
EXTT0=
EXTT1=
EXTT2=
EXTT3=
EXTT4=
EXTT5=
EXTT6=
EXTT7=
EXTT8=
EXTT9=
EXTT10=
EXTT11=
EXTT12=
PLAYORDER=
